<svg width="168" height="27" viewBox="0 0 168 27" fill="none" xmlns="http://www.w3.org/2000/svg">
<g clip-path="url(#clip0_1_1203)">
<g clip-path="url(#clip1_1_1203)">
<g clip-path="url(#clip2_1_1203)">
<path d="M37.0393 16.1467C37.011 16.1222 36.9834 16.098 36.9574 16.0747C36.7521 15.8903 36.5756 15.6868 36.5756 15.3149V6.6729C36.5756 6.4555 36.4918 6.24223 36.3106 6.12762C36.1285 6.01242 35.8873 6.02188 35.6206 6.15805L33.5139 7.28257L33.512 7.28376C33.4002 7.34874 33.2904 7.41284 33.2107 7.48757C33.1241 7.5691 33.0613 7.67396 33.0613 7.81722V7.88457C33.0613 8.03905 33.1363 8.16282 33.2154 8.26295C33.2558 8.31405 33.302 8.36456 33.3477 8.4136L33.3745 8.44225C33.4121 8.48272 33.4498 8.52319 33.4877 8.56631C33.6708 8.77515 33.8393 9.02682 33.8393 9.43326V15.3143C33.8393 15.6921 33.6769 15.8971 33.4943 16.0791L33.4816 16.0918L33.4691 16.1039C33.4534 16.1193 33.4373 16.1346 33.4207 16.1506C33.3502 16.2185 33.2744 16.2912 33.216 16.3647C33.1305 16.472 33.0613 16.6031 33.0613 16.7735V16.8633C33.0613 17.0137 33.1261 17.1416 33.2367 17.227C33.3435 17.3094 33.4852 17.3478 33.6412 17.3478H36.8368C36.9928 17.3478 37.1378 17.3097 37.2481 17.2296C37.3618 17.1475 37.4376 17.0202 37.4376 16.8633V16.7735C37.4376 16.5978 37.3588 16.4649 37.2653 16.3591C37.2006 16.2859 37.1176 16.2144 37.0393 16.1467Z" fill="#1E1E1E"/>
<path d="M62.2982 13.3946C61.2651 13.3946 60.4277 14.2888 60.4277 15.3914C60.4277 16.4941 61.2651 17.3882 62.2982 17.3882C63.3312 17.3882 64.1683 16.4941 64.1683 15.3914C64.1683 14.2888 63.3309 13.3946 62.2982 13.3946Z" fill="#1E1E1E"/>
<path d="M31.9599 16.3099C31.8966 16.2727 31.826 16.2473 31.7635 16.2257C31.7511 16.2216 31.7392 16.2174 31.7273 16.2136C31.6747 16.1959 31.6258 16.1793 31.576 16.1581C31.46 16.1082 31.3549 16.0379 31.2747 15.8943C31.1917 15.7457 31.1267 15.5035 31.1267 15.0914V6.62901C31.1267 6.52769 31.1093 6.43258 31.065 6.35076C31.0193 6.26687 30.9516 6.20897 30.8711 6.17294C30.72 6.10559 30.5183 6.11209 30.2959 6.14606L28.0445 6.52799L28.0415 6.52858C27.9023 6.55546 27.7837 6.61867 27.699 6.71703C27.6132 6.81628 27.5704 6.94271 27.5704 7.07799V7.14534C27.5704 7.31105 27.6478 7.43806 27.7344 7.53968C27.7884 7.60289 27.8586 7.66965 27.9261 7.73374L27.9267 7.73463C27.9602 7.76653 27.9936 7.79843 28.0235 7.82827C28.2158 8.02056 28.3898 8.2477 28.3898 8.64913V13.318C28.3898 15.1059 27.439 16.2006 26.2787 16.2006C25.641 16.2006 25.1605 15.9221 24.8318 15.3685C24.4974 14.8052 24.3145 13.9457 24.3145 12.7798L24.3565 6.6299V6.62871C24.3565 6.52326 24.335 6.42578 24.2841 6.34308C24.2326 6.26007 24.159 6.20484 24.0757 6.17087C23.9172 6.10588 23.7081 6.1115 23.4837 6.14576L21.2736 6.52768L21.2708 6.52828C20.9961 6.58145 20.7789 6.78231 20.7789 7.0777V7.14504C20.7789 7.30957 20.8539 7.436 20.9386 7.5379C20.9911 7.60141 21.0597 7.66817 21.1258 7.73256L21.1494 7.7556L21.1662 7.77214C21.1762 7.78189 21.1862 7.79193 21.1958 7.80139C21.2044 7.80995 21.2124 7.81822 21.2205 7.8262C21.4072 8.0179 21.5773 8.24564 21.5773 8.64855V12.5319C21.5773 14.1964 21.9992 15.4592 22.7252 16.3072C23.4522 17.1565 24.4691 17.573 25.6261 17.573C26.9811 17.573 28.0163 17.0661 28.6651 16.1347C28.7198 16.5515 28.8681 16.8676 29.1166 17.0897C29.4436 17.3819 29.9155 17.4832 30.4824 17.4832C30.9972 17.4832 31.4097 17.4557 31.6966 17.3647C31.841 17.3189 31.9663 17.2531 32.0565 17.1544C32.1508 17.0513 32.1976 16.9222 32.1976 16.7742C32.1976 16.6626 32.1771 16.566 32.1323 16.4845C32.0872 16.4024 32.0241 16.348 31.9586 16.3093L31.9599 16.3099Z" fill="#1E1E1E"/>
<path d="M57.3566 6.39206C57.2623 6.3123 57.1394 6.27893 57.013 6.27893H54.6795C54.5398 6.27893 54.4111 6.31969 54.3146 6.40624C54.2161 6.49456 54.1627 6.62128 54.1627 6.76335V6.8307C54.1627 7.03688 54.301 7.17542 54.4236 7.27407C54.48 7.31956 54.5434 7.36417 54.6048 7.40759L54.6305 7.42561C54.7016 7.47582 54.7708 7.52574 54.8355 7.58039C54.9647 7.68968 55.0643 7.80901 55.1094 7.96114C55.1539 8.1109 55.1528 8.31678 55.0355 8.61393L52.5545 14.8521L49.9078 8.36552L49.9073 8.36433C49.803 8.11444 49.7767 7.94046 49.7853 7.81374C49.7939 7.69056 49.8362 7.5987 49.8951 7.51304C49.9255 7.46873 49.9598 7.42738 49.9977 7.38218L50.008 7.36978L50.0088 7.36889C50.0423 7.32901 50.0791 7.2853 50.112 7.23951C50.1881 7.13465 50.2556 7.00498 50.2556 6.8307V6.76335C50.2556 6.62128 50.2027 6.49603 50.1084 6.40801C50.0157 6.32146 49.8921 6.27893 49.7598 6.27893H46.4381C46.312 6.27893 46.1864 6.3123 46.0884 6.38881C45.9863 6.46856 45.9213 6.59026 45.9213 6.74091V6.8307C45.9213 7.15031 46.1172 7.33817 46.3089 7.5219L46.3377 7.54937C46.5466 7.75053 46.798 7.99835 47.0069 8.46506L51.0805 17.7221C50.7616 18.5598 50.3909 19.3606 50.0038 19.9537C49.8055 20.2574 49.6066 20.5011 49.4124 20.6677C49.2176 20.8345 49.0386 20.9146 48.8768 20.9146C48.6319 20.9146 48.4718 20.797 48.3401 20.6009C48.212 20.4098 48.1193 20.1566 48.0164 19.876L47.9912 19.8075C47.8819 19.51 47.7577 19.1872 47.5635 18.9408C47.3627 18.6856 47.0871 18.5128 46.6904 18.5128C46.3319 18.5128 46.0361 18.6434 45.8303 18.8762C45.6256 19.1077 45.5219 19.427 45.5219 19.7827C45.5219 20.9022 46.7062 22.1301 48.4983 22.1301C49.6093 22.1301 50.4335 21.4634 51.0648 20.5941C51.6944 19.7274 52.1473 18.639 52.5139 17.7555L56.4871 8.46329L56.4876 8.46152C56.676 8.00603 56.9123 7.7585 57.1112 7.55439L57.1364 7.52869C57.3206 7.34053 57.5085 7.14824 57.5085 6.8307V6.74091C57.5085 6.59764 57.4548 6.47507 57.3566 6.39206Z" fill="#1E1E1E"/>
<path d="M45.4052 14.0786C45.3308 13.9932 45.2315 13.9445 45.1291 13.9291C44.9258 13.8987 44.6953 13.998 44.5717 14.2331L44.5609 14.2532L44.5567 14.2756C44.4992 14.5716 44.362 14.8315 44.1434 15.0179C43.9248 15.204 43.615 15.3251 43.1995 15.3251C42.8918 15.3251 42.6326 15.1972 42.4475 14.9532C42.2603 14.7063 42.1394 14.3273 42.1394 13.8116V7.67409H44.6499C44.926 7.67409 45.1667 7.4617 45.1667 7.14476V6.83047C45.1667 6.52445 44.9366 6.27869 44.6499 6.27869H42.138L42.1183 4.24911V4.24793C42.1183 4.07336 42.0835 3.9109 41.9891 3.78979C41.8907 3.66366 41.7471 3.60754 41.5805 3.60754H41.2654C40.9622 3.60754 40.7558 3.86984 40.708 4.22814C40.6261 4.85967 40.4291 5.37423 40.1323 5.72751C39.8385 6.07724 39.4398 6.27899 38.9316 6.27899H38.2801C38.134 6.27899 38.0046 6.3295 37.9127 6.43613C37.8225 6.5407 37.7844 6.6816 37.7844 6.83077V7.14505C37.7844 7.29275 37.8333 7.42685 37.9246 7.52462C38.0162 7.62239 38.1418 7.67438 38.2801 7.67438H39.34V13.7894C39.34 15.0259 39.6404 15.9747 40.1854 16.6159C40.7318 17.259 41.508 17.5736 42.4215 17.5736C44.396 17.5736 45.5241 15.9971 45.5241 14.418C45.5241 14.2821 45.481 14.1651 45.4052 14.0786Z" fill="#1E1E1E"/>
<path d="M19.9997 13.3752C19.7953 13.3291 19.554 13.4207 19.4173 13.6398L19.4129 13.6469L19.4093 13.6546C18.9636 14.5851 18.1213 15.4148 16.8205 15.4148C15.7374 15.4148 14.8419 14.941 14.2141 14.0986C13.5839 13.2529 13.2166 12.0256 13.2166 10.512C13.2166 9.57093 13.4473 8.73883 13.8473 8.14599C14.2454 7.55641 14.8103 7.20283 15.4959 7.20283C16.4661 7.20283 16.9397 7.88015 17.3751 8.63633C17.413 8.7025 17.4509 8.76926 17.4888 8.83631C17.6637 9.14528 17.841 9.45868 18.0463 9.70917C18.3011 10.0199 18.6129 10.2524 19.0408 10.2778H19.0428H19.0447C19.4602 10.2899 19.7687 10.1697 19.9734 9.95463C20.177 9.74077 20.2592 9.45189 20.2592 9.16477C20.2592 8.34597 19.7524 7.55995 18.9689 6.98898C18.1821 6.41534 17.0977 6.04257 15.894 6.05409C12.9692 6.07713 10.4589 8.26504 10.4589 11.7686C10.4589 14.9948 12.8774 17.5729 16.0002 17.5729C18.6546 17.5729 20.1225 15.7678 20.3419 13.9432C20.3613 13.7961 20.3367 13.6646 20.2697 13.5616C20.203 13.4588 20.104 13.3985 19.9997 13.3752Z" fill="#1E1E1E"/>
<path d="M142.217 4.71062C142.762 4.71062 143.223 4.52631 143.55 4.19932C143.877 3.87174 144.058 3.41065 144.058 2.87954C144.058 2.35907 143.876 1.89828 143.55 1.56863C143.224 1.23898 142.763 1.04846 142.217 1.04846C141.662 1.04846 141.191 1.23868 140.857 1.56745C140.522 1.8968 140.334 2.3576 140.334 2.87984C140.334 3.41242 140.522 3.87381 140.857 4.2011C141.192 4.5275 141.663 4.71062 142.217 4.71062Z" fill="#1E1E1E"/>
<path d="M35.1969 4.71062C35.7413 4.71062 36.2028 4.52631 36.5295 4.19932C36.8565 3.87174 37.0382 3.41065 37.0382 2.87954C37.0382 2.35907 36.8562 1.89857 36.5298 1.56863C36.2039 1.23898 35.7427 1.04846 35.1969 1.04846C34.6416 1.04846 34.1705 1.23868 33.8366 1.56745C33.5021 1.8968 33.3137 2.3576 33.3137 2.87984C33.3137 3.41242 33.5016 3.87381 33.8371 4.2011C34.1713 4.5275 34.6427 4.71062 35.1969 4.71062Z" fill="#1E1E1E"/>
<path d="M144.06 16.1467L144.059 16.1458L144.054 16.142L144.053 16.1405C144.027 16.1181 144.001 16.0959 143.978 16.0747C143.773 15.8903 143.596 15.6865 143.596 15.3149V6.6729C143.596 6.4555 143.512 6.24223 143.331 6.12762C143.149 6.01242 142.908 6.02188 142.641 6.15805L140.535 7.28287L140.532 7.28405C140.421 7.34904 140.311 7.41313 140.231 7.48816C140.144 7.56969 140.082 7.67455 140.082 7.81781V7.88516C140.082 8.03964 140.157 8.16341 140.236 8.26354C140.258 8.29131 140.281 8.31878 140.306 8.34596C140.318 8.36013 140.331 8.37431 140.344 8.3882C140.352 8.39676 140.36 8.40562 140.368 8.41419L140.395 8.44314C140.433 8.4836 140.47 8.52378 140.508 8.5669C140.691 8.77574 140.86 9.02741 140.86 9.43385V15.3149C140.86 15.6927 140.697 15.8977 140.515 16.0797C140.507 16.0874 140.499 16.0947 140.492 16.1024C140.483 16.1104 140.475 16.1184 140.467 16.1264L140.441 16.1509C140.37 16.2188 140.295 16.2915 140.236 16.365C140.151 16.4722 140.082 16.6031 140.082 16.7738V16.8636C140.082 17.014 140.147 17.1419 140.257 17.2272C140.364 17.3097 140.506 17.3481 140.661 17.3481H143.857C144.013 17.3481 144.158 17.31 144.268 17.2302C144.382 17.1481 144.458 17.0208 144.458 16.8639V16.7741C144.458 16.5984 144.379 16.4655 144.286 16.3597C144.221 16.2865 144.138 16.2147 144.06 16.1467Z" fill="#1E1E1E"/>
<path d="M10.2887 16.358C10.2306 16.3202 10.1651 16.2898 10.1037 16.2623L10.076 16.2499C10.022 16.2257 9.9692 16.202 9.91526 16.1734C9.79243 16.1084 9.67374 16.0233 9.57581 15.8771C9.4776 15.7303 9.39295 15.5105 9.35809 15.1646L8.93758 10.8553C8.78764 9.38045 8.2775 8.17734 7.4553 7.34318C6.63227 6.50813 5.50853 6.05383 4.15406 6.05383C3.00984 6.05383 2.01114 6.33326 1.29351 6.80233C0.57644 7.2711 0.126333 7.94074 0.126333 8.71553C0.126333 9.06438 0.238099 9.3636 0.448352 9.5751C0.657775 9.78571 0.951852 9.89588 1.29462 9.89588C1.68165 9.89588 1.94087 9.69207 2.13618 9.41205C2.28834 9.19346 2.41007 8.91551 2.52902 8.64346C2.55697 8.57965 2.58463 8.51644 2.61257 8.45412C2.76445 8.1162 2.92712 7.79895 3.16283 7.56472C3.393 7.33579 3.69952 7.17983 4.15378 7.17983C4.50125 7.17983 4.78288 7.25899 5.01526 7.40964C5.24792 7.56028 5.44075 7.78832 5.6012 8.10202C5.92544 8.73562 6.10802 9.6965 6.22339 10.9971L6.23556 11.1285C5.65543 10.7454 4.87749 10.5212 3.96428 10.5212C2.88092 10.5212 1.88692 10.8187 1.16293 11.4103C0.435626 12.0046 -0.0103308 12.8902 0.000181851 14.0366C0.000181851 15.18 0.42871 16.0712 1.16044 16.6726C1.88803 17.2704 2.90361 17.5732 4.06996 17.5732C5.41696 17.5732 6.35009 17.0897 6.90477 16.3716C6.98251 16.7464 7.13605 17.0173 7.38503 17.1972C7.69847 17.4234 8.13586 17.4834 8.67394 17.4834C9.12958 17.4834 9.56917 17.4497 9.89921 17.3579C10.0635 17.3121 10.2118 17.2492 10.3219 17.1594C10.4356 17.0666 10.5153 16.9387 10.5153 16.7745C10.5153 16.6773 10.4937 16.5919 10.4497 16.5187C10.4066 16.4469 10.3479 16.3964 10.2887 16.358ZM4.76379 16.4247C3.56922 16.4247 2.75781 15.206 2.75781 13.7217C2.75781 13.081 2.9523 12.57 3.27293 12.22C3.59329 11.8699 4.05031 11.6697 4.59559 11.6697C5.12039 11.6697 5.56303 11.8593 5.88421 12.1919C6.20596 12.5251 6.41483 13.011 6.45494 13.6198L6.51802 14.3166C6.57611 15.4571 5.84797 16.4247 4.76379 16.4247Z" fill="#1E1E1E"/>
<path d="M166.714 7.76715C166.859 7.74441 167.007 7.72107 167.145 7.6874C167.456 7.61178 167.76 7.47472 167.915 7.1244C167.969 7.02781 168.005 6.9194 167.999 6.80745C167.994 6.68635 167.94 6.58089 167.845 6.49966C167.755 6.42198 167.63 6.36822 167.476 6.33307C167.32 6.29762 167.126 6.27901 166.889 6.27901C165.695 6.27901 164.985 6.22318 164.399 6.16736L164.331 6.16086L164.264 6.15436L164.167 6.14491C163.682 6.09735 163.248 6.05481 162.642 6.05481C161.173 6.05481 159.93 6.54161 159.052 7.3864C158.173 8.23209 157.668 9.42869 157.668 10.8267C157.668 13.4187 159.809 15.3742 162.537 15.3742C162.812 15.3742 163.065 15.352 163.313 15.3299C163.854 15.396 164.278 15.6373 164.568 16.0036C164.861 16.3737 165.027 16.8824 165.027 17.4935C165.027 18.1378 164.795 18.6745 164.391 19.0517C163.984 19.4304 163.394 19.6578 162.664 19.6578C161.945 19.6522 161.454 19.4413 161.094 19.1368C160.731 18.8293 160.489 18.4178 160.285 17.9904C160.249 17.9153 160.214 17.8406 160.181 17.7668C160.167 17.7375 160.154 17.708 160.141 17.679C160.127 17.6468 160.113 17.6149 160.098 17.583C160.064 17.5071 160.031 17.4318 159.997 17.3565C159.903 17.1524 159.807 16.9548 159.697 16.7831C159.473 16.4355 159.183 16.1785 158.732 16.1785C158.35 16.1785 158.059 16.3218 157.864 16.5527C157.672 16.7811 157.584 17.0824 157.584 17.381C157.584 19.0998 159.377 20.7835 162.579 20.7835C164.046 20.7835 165.339 20.466 166.27 19.885C167.204 19.3025 167.784 18.4464 167.784 17.381C167.784 16.7276 167.577 16.1286 167.127 15.6365C166.739 15.2117 166.176 14.8732 165.426 14.6419C166.773 13.8385 167.616 12.436 167.616 10.7142C167.616 9.65997 167.137 8.57621 166.437 7.81412C166.51 7.80024 166.584 7.78813 166.66 7.77602L166.714 7.76715ZM164.37 13.5047C164.034 13.9413 163.548 14.2027 162.937 14.2027C162.268 14.2027 161.633 13.7171 161.157 12.8897C160.684 12.0659 160.384 10.926 160.384 9.68124C160.384 8.94249 160.567 8.3207 160.888 7.88708C161.206 7.45671 161.665 7.20238 162.243 7.20238C163.02 7.20238 163.68 7.70896 164.154 8.53722C164.627 9.36577 164.901 10.4994 164.901 11.7011C164.901 12.438 164.708 13.0652 164.37 13.5047ZM166.372 7.67824C166.298 7.69301 166.225 7.70837 166.153 7.72875C166.207 7.71339 166.262 7.7001 166.317 7.68829C166.335 7.68445 166.354 7.68178 166.372 7.67824C166.479 7.65668 166.587 7.63837 166.694 7.62153H166.692C166.586 7.63866 166.478 7.65697 166.372 7.67824Z" fill="#1E1E1E"/>
<path d="M62.2982 6.31897C61.2651 6.31897 60.4277 7.2131 60.4277 8.31577C60.4277 9.41844 61.2651 10.3126 62.2982 10.3126C63.3312 10.3126 64.1683 9.41844 64.1683 8.31577C64.1683 7.2131 63.3309 6.31897 62.2982 6.31897Z" fill="#1E1E1E"/>
<path d="M156.623 16.1732C156.6 16.1493 156.577 16.1259 156.556 16.1032C156.384 15.9191 156.221 15.7047 156.203 15.308V15.3059L155.95 11.0633C155.844 9.27597 155.33 8.02059 154.575 7.21153C153.819 6.40159 152.836 6.05422 151.818 6.05422C150.509 6.05422 149.424 6.63967 148.761 7.63098V6.69579C148.761 6.4843 148.703 6.26335 148.544 6.13899C148.375 6.00755 148.151 6.02468 147.908 6.15996L147.906 6.16115L145.874 7.21242L145.872 7.2133C145.754 7.27061 145.644 7.33441 145.562 7.41505C145.475 7.50042 145.414 7.61059 145.414 7.7509V7.81825C145.414 8.0008 145.505 8.13136 145.607 8.23149C145.671 8.2947 145.755 8.35851 145.835 8.41935C145.872 8.44801 145.909 8.47607 145.942 8.50295C146.056 8.59422 146.159 8.69258 146.234 8.8193C146.309 8.94366 146.361 9.10258 146.361 9.32234V15.3381C146.361 15.7112 146.187 15.9153 145.988 16.099C145.963 16.1224 145.936 16.1463 145.908 16.1708C145.832 16.2385 145.751 16.3108 145.687 16.3841C145.596 16.4904 145.52 16.6228 145.52 16.7973V16.8871C145.52 17.0375 145.584 17.1654 145.695 17.2507C145.802 17.3331 145.943 17.3715 146.099 17.3715H149.358C149.523 17.3715 149.669 17.3343 149.779 17.2522C149.893 17.1666 149.959 17.0381 149.959 16.8871V16.7973C149.959 16.6216 149.88 16.4886 149.787 16.3829C149.722 16.3096 149.639 16.2376 149.561 16.1699C149.532 16.1454 149.504 16.1215 149.479 16.0979C149.273 15.9135 149.097 15.71 149.097 15.3381V10.0632C149.097 9.28217 149.305 8.62169 149.664 8.15971C150.021 7.7001 150.534 7.42746 151.166 7.42746C151.761 7.42746 152.243 7.68917 152.596 8.25394C152.954 8.82757 153.183 9.72229 153.235 10.9901V10.9913L153.446 15.3237C153.455 15.5227 153.418 15.6704 153.36 15.7889C153.302 15.9097 153.219 16.0069 153.126 16.1008C153.101 16.1265 153.073 16.1534 153.044 16.1809C152.976 16.247 152.902 16.3173 152.846 16.387C152.76 16.494 152.688 16.6251 152.688 16.797V16.8868C152.688 17.0378 152.754 17.1663 152.868 17.2519C152.978 17.334 153.125 17.3713 153.289 17.3713H156.359C156.515 17.3713 156.66 17.3331 156.77 17.2534C156.884 17.1713 156.96 17.044 156.96 16.8871V16.7973C156.96 16.6304 156.898 16.5011 156.818 16.3924C156.762 16.317 156.691 16.2426 156.623 16.1732Z" fill="#1E1E1E"/>
<path d="M138.632 16.1546C138.606 16.1322 138.581 16.1103 138.556 16.089C138.351 15.9074 138.176 15.7095 138.176 15.3385V0.747988C138.176 0.538561 138.089 0.331497 137.909 0.221319C137.727 0.11055 137.487 0.119412 137.221 0.255583L135.096 1.37892C134.994 1.43386 134.886 1.49265 134.806 1.57063C134.719 1.65629 134.661 1.76706 134.661 1.91534V1.98269C134.661 2.13835 134.737 2.25976 134.817 2.35664C134.858 2.40597 134.904 2.45412 134.95 2.50109L134.973 2.52501L134.974 2.5256C135.012 2.56519 135.051 2.60448 135.09 2.64671C135.27 2.84521 135.439 3.09098 135.439 3.50893V15.3385C135.439 15.7157 135.278 15.9148 135.095 16.0941C135.086 16.1026 135.077 16.1112 135.068 16.12C135.061 16.1265 135.055 16.133 135.048 16.1395L135.027 16.1593C134.954 16.2285 134.876 16.3026 134.815 16.38C134.729 16.4896 134.661 16.6231 134.661 16.7977V16.865C134.661 17.0154 134.726 17.1433 134.837 17.2286C134.943 17.311 135.085 17.3494 135.241 17.3494H138.437C138.593 17.3494 138.737 17.3113 138.848 17.2316C138.961 17.1495 139.038 17.0221 139.038 16.8653V16.798C139.038 16.6184 138.96 16.4831 138.865 16.3747C138.799 16.2979 138.712 16.2234 138.632 16.1546Z" fill="#1E1E1E"/>
<path d="M121.43 16.2037C121.401 16.176 121.373 16.1491 121.348 16.1228C121.159 15.9317 120.991 15.7155 120.991 15.3377V0.769948C120.991 0.52537 120.928 0.307082 120.738 0.201334C120.564 0.104153 120.332 0.133987 120.074 0.225556L117.844 0.989418L117.841 0.990304C117.587 1.08896 117.372 1.2845 117.372 1.57811V1.62301C117.372 1.80674 117.465 1.93759 117.569 2.03743C117.635 2.10035 117.72 2.16416 117.802 2.225C117.84 2.25366 117.877 2.28172 117.912 2.3086C118.028 2.40017 118.133 2.49853 118.211 2.62525C118.286 2.7496 118.339 2.90793 118.339 3.12681V7.01731C117.662 6.42388 116.769 6.05436 115.723 6.05436C112.888 6.05436 110.645 8.41506 110.645 11.7913C110.645 15.3737 113.039 17.5731 115.681 17.5731C116.76 17.5731 117.792 17.1566 118.515 16.3494L118.55 16.7871C118.563 16.9378 118.615 17.0799 118.713 17.1847C118.813 17.291 118.949 17.3486 119.108 17.3486H121.295C121.429 17.3486 121.554 17.3165 121.648 17.2335C121.746 17.1469 121.79 17.0228 121.79 16.8867V16.8193C121.79 16.6515 121.718 16.5216 121.632 16.4155C121.574 16.3443 121.5 16.2723 121.43 16.2037ZM118.339 13.6767C118.339 15.5536 117.198 16.4238 116.25 16.4247C115.361 16.4031 114.616 15.7881 114.094 14.7782C113.573 13.768 113.287 12.3809 113.318 10.8741C113.338 9.70442 113.602 8.78312 114.037 8.15868C114.469 7.53867 115.074 7.20251 115.808 7.20251C116.495 7.20251 117.127 7.57529 117.591 8.12972C118.056 8.68476 118.339 9.40845 118.339 10.0852V13.6767Z" fill="#1E1E1E"/>
<path d="M109.57 13.5847C109.371 13.5307 109.137 13.6089 108.989 13.8107L108.98 13.8225L108.974 13.8358C108.577 14.683 107.679 15.3928 106.407 15.3928C105.027 15.3928 104.02 14.5545 103.495 13.1582L108.45 11.2128C108.792 11.0828 109.086 10.8896 109.293 10.6061C109.502 10.3207 109.614 9.95624 109.614 9.50224C109.614 8.67575 109.293 7.81117 108.621 7.15423C107.947 6.49641 106.929 6.05481 105.545 6.05481C102.692 6.05481 100.382 8.43413 100.382 11.7244C100.382 13.4976 100.934 14.9612 101.855 15.9824C102.776 17.0035 104.059 17.5736 105.502 17.5736C108.242 17.5736 109.708 15.5434 109.907 14.1486L109.908 14.1448V14.1409C109.921 13.9994 109.894 13.8736 109.829 13.7738C109.765 13.6745 109.671 13.6122 109.57 13.5847ZM103.097 10.7142C103.097 9.65495 103.304 8.76969 103.662 8.1547C104.018 7.54355 104.519 7.20297 105.124 7.20297C105.672 7.20297 106.135 7.56629 106.467 8.06431C106.801 8.56292 106.983 9.16786 106.983 9.59203C106.983 9.79703 106.945 9.95949 106.872 10.0877C106.799 10.215 106.687 10.3198 106.519 10.3996L103.189 11.9415C103.128 11.5569 103.097 11.1528 103.097 10.7142Z" fill="#1E1E1E"/>
<path d="M87.3651 13.3749C87.1604 13.3288 86.9194 13.4204 86.7824 13.6395L86.778 13.6466L86.7744 13.6543C86.3287 14.5848 85.4866 15.4145 84.1856 15.4145C83.1025 15.4145 82.207 14.9407 81.5793 14.0983C80.9493 13.2526 80.5819 12.0253 80.5819 10.5117C80.5819 9.57063 80.8127 8.73853 81.2127 8.1457C81.6108 7.55611 82.1757 7.20254 82.8612 7.20254C83.8312 7.20254 84.3051 7.87986 84.7405 8.63604C84.7615 8.67266 84.7826 8.70929 84.8036 8.74651C84.8205 8.77634 84.8373 8.80618 84.8545 8.83601C85.0293 9.14498 85.2067 9.45839 85.4119 9.70887C85.6667 10.0196 85.9785 10.2521 86.4065 10.2775H86.4084H86.4104C86.8259 10.2896 87.1344 10.1694 87.3391 9.95463C87.5424 9.74077 87.6246 9.45189 87.6246 9.16477C87.6246 8.34597 87.1177 7.55995 86.3346 6.98898C85.5478 6.41534 84.4633 6.04257 83.2593 6.05409C80.3346 6.07713 77.8246 8.26504 77.8246 11.7686C77.8246 14.9948 80.2428 17.5729 83.3658 17.5729C86.0203 17.5729 87.4879 15.7681 87.7076 13.9432C87.7269 13.7961 87.702 13.6646 87.6351 13.5616C87.5684 13.4588 87.4694 13.3982 87.3651 13.3749Z" fill="#1E1E1E"/>
<path d="M75.9864 11.8558C75.3883 11.3454 74.5982 11.0713 73.8338 10.8468C73.6866 10.8037 73.5408 10.7623 73.3972 10.7219C72.7823 10.5479 72.2088 10.3854 71.7576 10.137C71.4826 9.98578 71.2635 9.80766 71.1132 9.58495C70.9644 9.36459 70.8764 9.09225 70.8764 8.73897C70.8764 7.86493 71.5412 7.15807 72.5042 7.15807C73.0249 7.15807 73.3699 7.32349 73.6227 7.56275C73.8808 7.80703 74.0532 8.13697 74.2111 8.48848C74.2413 8.55553 74.2712 8.62406 74.3011 8.69318C74.4236 8.9738 74.5487 9.26061 74.7088 9.48629C74.9169 9.77931 75.1949 9.98667 75.6154 9.98667C76.2282 9.98667 76.7209 9.52735 76.7209 8.87366C76.7209 8.15647 76.2885 7.44814 75.5415 6.9262C74.7921 6.40248 73.7135 6.05481 72.3781 6.05481C69.9267 6.05481 68.1191 7.45109 68.1191 9.38999C68.1191 10.5553 68.5191 11.3153 69.1266 11.8358C69.725 12.3482 70.5154 12.6203 71.2803 12.8407C71.4344 12.885 71.5869 12.9272 71.7371 12.9689C72.3446 13.1369 72.9103 13.2935 73.3568 13.5339C73.6318 13.6819 73.8507 13.8568 74.0006 14.0759C74.1492 14.2928 74.2369 14.5619 74.2369 14.9119C74.2369 15.4424 74.0488 15.8302 73.7406 16.0893C73.4277 16.3519 72.9776 16.4925 72.4411 16.4925C71.8535 16.4925 71.4679 16.3232 71.1904 16.0804C70.9088 15.8341 70.7262 15.5018 70.5624 15.1491C70.5284 15.0755 70.4946 15.0002 70.4609 14.9246C70.3372 14.6481 70.2111 14.366 70.049 14.1439C69.8324 13.8473 69.5421 13.6414 69.0984 13.6414C68.7714 13.6414 68.4729 13.7318 68.2541 13.9324C68.0319 14.1362 67.9088 14.4381 67.9088 14.8215C67.9088 15.5106 68.3634 16.1962 69.1393 16.7013C69.9195 17.2091 71.0441 17.5505 72.4411 17.5505C73.8172 17.5505 74.9504 17.2035 75.7438 16.621C76.5394 16.0373 76.9942 15.2149 76.9942 14.2827C76.9942 13.1281 76.5939 12.3744 75.9864 11.8558Z" fill="#1E1E1E"/>
<path d="M99.4589 16.1475C99.4392 16.1262 99.4199 16.1055 99.4013 16.0851C99.2304 15.8973 99.0663 15.6816 99.0381 15.2829L98.7858 10.9295C98.6898 9.20802 98.181 7.98601 97.4283 7.19379C96.6752 6.40157 95.692 6.0542 94.6745 6.0542C93.5275 6.0542 92.5405 6.50496 91.8707 7.28714L91.8906 0.725191C91.8906 0.494201 91.817 0.286842 91.6375 0.187002C91.4665 0.091593 91.2485 0.122608 91.0233 0.230719L88.7744 1.28553L88.7728 1.28642C88.5172 1.41048 88.3343 1.60779 88.3343 1.89225V1.95959C88.3343 2.13121 88.4212 2.25586 88.5152 2.35127C88.5622 2.39913 88.6154 2.44432 88.6677 2.48685C88.6823 2.49897 88.697 2.51078 88.7116 2.5226C88.75 2.5542 88.7883 2.58522 88.827 2.6183C89.0328 2.79612 89.2171 3.01087 89.2171 3.4182V15.3375C89.2171 15.71 89.045 15.9082 88.8455 16.0893C88.822 16.1105 88.7971 16.1324 88.7717 16.1548C88.6931 16.2237 88.609 16.2975 88.5437 16.3746C88.451 16.4833 88.3763 16.6183 88.3763 16.7967V16.8641C88.3763 17.0144 88.4411 17.1423 88.5517 17.2277C88.6582 17.3101 88.8002 17.3485 88.9562 17.3485H92.2146C92.3706 17.3485 92.5156 17.3104 92.6259 17.2306C92.7396 17.1485 92.8154 17.0212 92.8154 16.8644V16.797C92.8154 16.6174 92.7383 16.4821 92.6436 16.3737C92.5767 16.2969 92.4907 16.2231 92.4104 16.1546L92.409 16.1534C92.3833 16.1312 92.3581 16.1097 92.3346 16.0887C92.1293 15.907 91.9537 15.7091 91.9537 15.3381V10.0632C91.9537 9.28217 92.1617 8.62169 92.5208 8.15971C92.878 7.70009 93.3906 7.42744 94.0227 7.42744C94.6184 7.42744 95.1011 7.68975 95.4536 8.24123C95.8115 8.80099 96.04 9.66735 96.0921 10.8781L96.3023 15.3233C96.3203 15.6979 96.1648 15.8999 95.9825 16.084C95.9595 16.1076 95.9344 16.1318 95.9086 16.1569C95.8375 16.226 95.7612 16.3005 95.7017 16.3764C95.6148 16.4872 95.5451 16.6218 95.5451 16.7973V16.8871C95.5451 17.0395 95.6121 17.1639 95.7261 17.2436C95.8331 17.3187 95.9737 17.3491 96.125 17.3491H99.2154C99.3667 17.3491 99.5073 17.3184 99.6144 17.2436C99.7283 17.1639 99.7953 17.0395 99.7953 16.8871V16.7973C99.7953 16.6281 99.7369 16.4954 99.6586 16.3829C99.6016 16.3008 99.528 16.2216 99.4589 16.1475Z" fill="#1E1E1E"/>
<path d="M133.476 16.3094C133.412 16.2719 133.342 16.2468 133.279 16.2252L133.256 16.2175L133.243 16.2131C133.228 16.2078 133.212 16.2028 133.198 16.1977C133.188 16.1945 133.178 16.1912 133.169 16.1877C133.143 16.1783 133.117 16.1685 133.092 16.1576C132.976 16.1077 132.871 16.0374 132.79 15.8938C132.707 15.7452 132.642 15.503 132.642 15.0909V6.6285C132.642 6.52718 132.625 6.43207 132.581 6.35025C132.535 6.26636 132.467 6.20846 132.386 6.17243C132.236 6.10508 132.034 6.11187 131.811 6.14555L129.56 6.52748L129.557 6.52807C129.418 6.55495 129.299 6.61816 129.215 6.71652C129.129 6.81577 129.086 6.9419 129.086 7.07748V7.14483C129.086 7.31054 129.163 7.43755 129.25 7.53917C129.304 7.60267 129.375 7.66973 129.443 7.73412L129.447 7.73825L129.473 7.76307C129.481 7.77045 129.488 7.77754 129.496 7.78493C129.511 7.7994 129.526 7.81387 129.54 7.82776C129.732 8.02005 129.906 8.2475 129.906 8.64863V13.3178C129.906 15.1057 128.955 16.2004 127.795 16.2004C127.157 16.2004 126.676 15.9219 126.348 15.3683C126.014 14.805 125.831 13.9454 125.831 12.7796L125.873 6.62968V6.6285C125.873 6.52305 125.851 6.42557 125.8 6.34316C125.749 6.26015 125.675 6.20492 125.592 6.17095C125.433 6.10596 125.224 6.11158 125 6.14584L122.79 6.52777L122.788 6.52836C122.513 6.58183 122.295 6.78269 122.295 7.07778V7.14512C122.295 7.30936 122.37 7.43608 122.455 7.53798C122.508 7.60149 122.577 7.66884 122.643 7.73323C122.676 7.76513 122.708 7.79674 122.737 7.82657C122.924 8.01828 123.094 8.24602 123.094 8.64892V12.5323C123.094 14.1968 123.516 15.4596 124.242 16.3076C124.969 17.1569 125.986 17.5733 127.143 17.5733C128.498 17.5733 129.533 17.0665 130.182 16.1351C130.237 16.5519 130.385 16.868 130.634 17.0898C130.961 17.3819 131.432 17.4833 131.999 17.4833C132.514 17.4833 132.927 17.4558 133.213 17.3648C133.358 17.319 133.483 17.2532 133.573 17.1545C133.668 17.0514 133.714 16.9223 133.714 16.7743C133.714 16.6627 133.694 16.5661 133.649 16.4846C133.604 16.4024 133.541 16.3481 133.476 16.3094Z" fill="#1E1E1E"/>
</g>
</g>
</g>
<defs>
<clipPath id="clip0_1_1203">
<rect width="168" height="22" fill="white" transform="translate(0 0.130005)"/>
</clipPath>
<clipPath id="clip1_1_1203">
<rect width="168" height="22" fill="white" transform="translate(0 0.130005)"/>
</clipPath>
<clipPath id="clip2_1_1203">
<rect width="168" height="22" fill="white" transform="translate(0 0.130005)"/>
</clipPath>
</defs>
</svg>
