<svg width="170" height="39" viewBox="0 0 170 39" fill="none" xmlns="http://www.w3.org/2000/svg">
<path d="M7.85952 32.1902L0.567383 22.0852L7.65862 17.6177L11.9252 28.7864L12.2679 28.7391L13.6861 13.8239L21.4747 8.90733L25.1385 26.9191L25.4812 26.8718L27.6204 5.03075L34.2271 0.870605L29.6769 32.1902H21.5456L17.9409 15.7031L17.6218 15.8685L16.0499 32.1902H7.84769H7.85952Z" fill="#4D9FFF" style="fill:#4D9FFF;fill:color(display-p3 0.3038 0.6241 1.0000);fill-opacity:1;"/>
<path d="M45.605 31.1719L42.4769 13.967H46.9866L48.7071 27.5745H48.9417L50.8186 13.967H55.7715L57.7005 27.5745H57.9352L59.6817 13.967H63.8786L60.7244 31.1719H55.0938L53.3472 17.5905H53.1387L51.2878 31.1719H45.605ZM70.4565 31.5368C69.3269 31.5368 68.3624 31.363 67.563 31.0155C66.7636 30.6679 66.1119 30.1813 65.6079 29.5557C65.1213 28.93 64.7563 28.1914 64.513 27.3399C64.2871 26.4883 64.1741 25.5499 64.1741 24.5246C64.1741 23.534 64.2871 22.5955 64.513 21.7092C64.7389 20.8055 65.0865 20.0061 65.5557 19.311C66.0423 18.6158 66.668 18.0684 67.4326 17.6687C68.1973 17.2516 69.127 17.0431 70.2219 17.0431C71.2646 17.0431 72.1596 17.2342 72.9069 17.6166C73.6716 17.9989 74.2711 18.5463 74.7056 19.2588C75.1574 19.954 75.4616 20.7882 75.618 21.7614C75.7917 22.7172 75.8091 23.7686 75.6701 24.9156L66.9895 25.098V23.0387L72.6984 22.9083L71.9424 23.9771C72.0293 23.0734 72.0119 22.3522 71.8902 21.8135C71.7686 21.2574 71.5601 20.8577 71.2646 20.6144C70.9866 20.3537 70.639 20.2233 70.2219 20.2233C69.7527 20.2233 69.3617 20.3798 69.0488 20.6926C68.7534 21.0054 68.5362 21.4659 68.3971 22.0742C68.2581 22.665 68.1886 23.3949 68.1886 24.2639C68.1886 25.7411 68.3798 26.8272 68.7621 27.5224C69.1444 28.2001 69.7005 28.539 70.4304 28.539C70.7433 28.539 71.0126 28.4782 71.2385 28.3565C71.4645 28.2349 71.6469 28.0698 71.786 27.8612C71.925 27.6527 72.0206 27.4094 72.0727 27.1313C72.1422 26.8533 72.177 26.5492 72.177 26.219L75.8526 26.6361C75.87 27.2096 75.7917 27.783 75.618 28.3565C75.4442 28.93 75.1574 29.4601 74.7577 29.9467C74.358 30.4159 73.8019 30.7982 73.0894 31.0937C72.3942 31.3891 71.5166 31.5368 70.4565 31.5368ZM85.16 31.5368C84.4475 31.5368 83.8306 31.363 83.3092 31.0155C82.8052 30.6679 82.3968 30.1726 82.084 29.5296C81.7712 28.8692 81.554 28.0959 81.4323 27.2096H81.0152L80.9631 31.1719H77.6264V24.8113V12.8983H81.7451V16.4174C81.7451 16.8867 81.7191 17.3819 81.6669 17.9033C81.6148 18.4247 81.5366 18.9808 81.4323 19.5717C81.3281 20.1451 81.2064 20.7534 81.0674 21.3964H81.5105C81.7017 20.4232 81.9624 19.6238 82.2926 18.9982C82.6401 18.3725 83.0659 17.9033 83.5699 17.5905C84.0739 17.2603 84.6561 17.0952 85.3165 17.0952C86.2201 17.0952 87.0196 17.3819 87.7147 17.9554C88.4098 18.5116 88.9486 19.3197 89.3309 20.3798C89.7306 21.4399 89.9305 22.7346 89.9305 24.2639C89.9305 25.8453 89.7219 27.1835 89.3048 28.2783C88.9051 29.3558 88.3403 30.1726 87.6104 30.7287C86.8979 31.2675 86.0811 31.5368 85.16 31.5368ZM83.7524 28.2262C84.1521 28.2262 84.491 28.0785 84.769 27.783C85.0645 27.4702 85.2904 27.0271 85.4468 26.4536C85.6206 25.8627 85.7075 25.1676 85.7075 24.3681C85.7075 23.534 85.6293 22.8301 85.4729 22.2566C85.3164 21.6658 85.0905 21.2226 84.7951 20.9272C84.517 20.6144 84.1868 20.458 83.8045 20.458C83.5265 20.458 83.2745 20.5362 83.0485 20.6926C82.84 20.849 82.6488 21.0575 82.475 21.3182C82.3186 21.5615 82.1883 21.8482 82.084 22.1784C81.9798 22.5086 81.8929 22.8475 81.8233 23.1951C81.7712 23.5427 81.7451 23.8729 81.7451 24.1857V24.6028C81.7451 25.0025 81.7799 25.4196 81.8494 25.854C81.9363 26.2711 82.058 26.6621 82.2144 27.0271C82.3882 27.3746 82.5967 27.6614 82.84 27.8873C83.1007 28.1132 83.4048 28.2262 83.7524 28.2262ZM97.5688 31.5108C96.4565 31.5108 95.492 31.337 94.6752 30.9894C93.8758 30.6244 93.2241 30.1292 92.7201 29.5035C92.2162 28.8605 91.8425 28.1132 91.5992 27.2617C91.3559 26.3928 91.2343 25.463 91.2343 24.4724C91.2343 23.4471 91.3559 22.4913 91.5992 21.6049C91.8425 20.7186 92.2162 19.9366 92.7201 19.2588C93.2241 18.5637 93.8671 18.025 94.6492 17.6426C95.4486 17.2603 96.3957 17.0691 97.4906 17.0691C98.6897 17.0691 99.689 17.3037 100.488 17.773C101.288 18.2248 101.879 18.8417 102.261 19.6238C102.661 20.3884 102.852 21.24 102.834 22.1784L99.0286 22.8823C99.046 22.3088 98.9851 21.8309 98.8461 21.4485C98.7071 21.0488 98.5072 20.7447 98.2465 20.5362C98.0032 20.3276 97.6991 20.2233 97.3342 20.2233C97.004 20.2233 96.7172 20.3102 96.4739 20.484C96.2306 20.6404 96.0221 20.8837 95.8483 21.2139C95.6919 21.5441 95.5702 21.9612 95.4833 22.4652C95.4138 22.9518 95.3791 23.5253 95.3791 24.1857C95.3791 25.1241 95.4573 25.9148 95.6137 26.5579C95.7701 27.1835 96.0047 27.6614 96.3175 27.9916C96.6477 28.3218 97.0648 28.4869 97.5688 28.4869C98.0728 28.4869 98.4638 28.3305 98.7418 28.0177C99.0199 27.6875 99.2111 27.2964 99.3153 26.8446C99.4196 26.3754 99.463 25.9235 99.4457 25.4891L103.147 25.9322C103.199 26.61 103.139 27.2878 102.965 27.9655C102.808 28.6259 102.513 29.2255 102.079 29.7642C101.644 30.3029 101.053 30.7287 100.306 31.0415C99.576 31.3544 98.6636 31.5108 97.5688 31.5108ZM110.449 31.5368C109.32 31.5368 108.355 31.363 107.556 31.0155C106.756 30.6679 106.105 30.1813 105.601 29.5557C105.114 28.93 104.749 28.1914 104.506 27.3399C104.28 26.4883 104.167 25.5499 104.167 24.5246C104.167 23.534 104.28 22.5955 104.506 21.7092C104.732 20.8055 105.079 20.0061 105.549 19.311C106.035 18.6158 106.661 18.0684 107.426 17.6687C108.19 17.2516 109.12 17.0431 110.215 17.0431C111.257 17.0431 112.152 17.2342 112.9 17.6166C113.664 17.9989 114.264 18.5463 114.698 19.2588C115.15 19.954 115.454 20.7882 115.611 21.7614C115.785 22.7172 115.802 23.7686 115.663 24.9156L106.982 25.098V23.0387L112.691 22.9083L111.935 23.9771C112.022 23.0734 112.005 22.3522 111.883 21.8135C111.761 21.2574 111.553 20.8577 111.257 20.6144C110.979 20.3537 110.632 20.2233 110.215 20.2233C109.746 20.2233 109.355 20.3798 109.042 20.6926C108.746 21.0054 108.529 21.4659 108.39 22.0742C108.251 22.665 108.181 23.3949 108.181 24.2639C108.181 25.7411 108.373 26.8272 108.755 27.5224C109.137 28.2001 109.693 28.539 110.423 28.539C110.736 28.539 111.005 28.4782 111.231 28.3565C111.457 28.2349 111.64 28.0698 111.779 27.8612C111.918 27.6527 112.013 27.4094 112.066 27.1313C112.135 26.8533 112.17 26.5492 112.17 26.219L115.845 26.6361C115.863 27.2096 115.785 27.783 115.611 28.3565C115.437 28.93 115.15 29.4601 114.751 29.9467C114.351 30.4159 113.795 30.7982 113.082 31.0937C112.387 31.3891 111.509 31.5368 110.449 31.5368ZM117.619 31.1719V22.8562V17.408H120.93L120.982 21.9438H121.399C121.538 20.7968 121.764 19.8671 122.077 19.1546C122.407 18.4247 122.842 17.8946 123.38 17.5644C123.919 17.2168 124.579 17.0431 125.361 17.0431C126.717 17.0431 127.725 17.5297 128.385 18.5029C129.063 19.4761 129.402 20.9706 129.402 22.9865V31.1719H125.257V23.7686C125.257 22.6737 125.136 21.8743 124.892 21.3703C124.649 20.8664 124.258 20.6144 123.719 20.6144C123.267 20.6144 122.894 20.7882 122.598 21.1357C122.303 21.4833 122.086 21.9873 121.947 22.6477C121.808 23.2907 121.738 24.0814 121.738 25.0198V31.1719H117.619ZM136.55 31.4586C135.056 31.4586 133.918 31.0502 133.136 30.2334C132.371 29.3993 131.989 28.1045 131.989 26.3493V20.5883H130.607L130.633 17.6426H131.337C132.015 17.6079 132.501 17.4515 132.797 17.1734C133.092 16.8953 133.283 16.4348 133.37 15.7918L133.579 14.5145H136.003V17.408H138.61V20.6926H136.003V25.7758C136.003 26.4188 136.133 26.8967 136.394 27.2096C136.655 27.505 137.011 27.6527 137.463 27.6527C137.671 27.6527 137.88 27.6266 138.089 27.5745C138.297 27.5224 138.488 27.4529 138.662 27.366V31.1458C138.262 31.2675 137.889 31.3457 137.541 31.3804C137.211 31.4326 136.881 31.4586 136.55 31.4586ZM140.403 31.1719V23.9511V17.408H143.818L143.896 22.5173H144.313C144.383 21.1444 144.565 20.0756 144.861 19.311C145.174 18.5289 145.591 17.9728 146.112 17.6426C146.651 17.3124 147.268 17.1473 147.963 17.1473C148.119 17.1473 148.284 17.1647 148.458 17.1995C148.632 17.2168 148.815 17.2603 149.006 17.3298L148.823 21.8656C148.615 21.7787 148.389 21.7092 148.145 21.6571C147.902 21.6049 147.676 21.5789 147.468 21.5789C146.912 21.5789 146.425 21.7179 146.008 21.996C145.591 22.274 145.261 22.6998 145.017 23.2733C144.774 23.8294 144.635 24.5506 144.6 25.4369V31.1719H140.403ZM153.203 31.5108C152.542 31.5108 151.943 31.3804 151.404 31.1197C150.865 30.8417 150.431 30.4333 150.101 29.8945C149.788 29.3384 149.631 28.6607 149.631 27.8612C149.631 27.0966 149.77 26.4623 150.048 25.9583C150.344 25.4543 150.735 25.0459 151.221 24.7331C151.725 24.4029 152.282 24.1422 152.89 23.9511C153.515 23.7599 154.158 23.5861 154.819 23.4297C155.375 23.2907 155.827 23.1603 156.174 23.0387C156.522 22.8997 156.774 22.7346 156.93 22.5434C157.087 22.3348 157.165 22.0568 157.165 21.7092C157.165 21.2748 157.035 20.9185 156.774 20.6404C156.531 20.345 156.157 20.1973 155.653 20.1973C155.288 20.1973 154.967 20.2929 154.688 20.484C154.41 20.6578 154.193 20.9272 154.037 21.2921C153.88 21.6397 153.793 22.0915 153.776 22.6477L150.022 22.1263C150.057 21.2748 150.213 20.5362 150.492 19.9105C150.77 19.2675 151.161 18.7375 151.665 18.3204C152.169 17.8859 152.768 17.5644 153.463 17.3559C154.176 17.1473 154.958 17.0431 155.809 17.0431C157.078 17.0431 158.103 17.269 158.885 17.7208C159.685 18.1727 160.267 18.8417 160.632 19.7281C161.014 20.6144 161.205 21.7353 161.205 23.0908V26.0365C161.205 26.5926 161.214 27.1661 161.232 27.757C161.249 28.3305 161.275 28.9127 161.31 29.5035C161.344 30.077 161.379 30.6331 161.414 31.1719H157.843C157.773 30.6331 157.712 30.0944 157.66 29.5557C157.625 28.9995 157.599 28.4174 157.582 27.8091H157.191C157.069 28.5564 156.826 29.2168 156.461 29.7903C156.114 30.3464 155.662 30.7722 155.106 31.0676C154.567 31.363 153.933 31.5108 153.203 31.5108ZM154.975 28.3826C155.236 28.3826 155.479 28.3392 155.705 28.2523C155.948 28.148 156.166 28.0003 156.357 27.8091C156.565 27.6179 156.739 27.392 156.878 27.1313C157.017 26.8533 157.113 26.5492 157.165 26.219V24.1596L157.843 24.1857C157.617 24.3768 157.356 24.5419 157.061 24.681C156.765 24.82 156.452 24.9416 156.122 25.0459C155.809 25.1328 155.497 25.2284 155.184 25.3327C154.871 25.4369 154.593 25.5586 154.35 25.6976C154.106 25.8193 153.906 25.9844 153.75 26.1929C153.611 26.4014 153.541 26.6621 153.541 26.9749C153.541 27.4268 153.681 27.7744 153.959 28.0177C154.237 28.261 154.576 28.3826 154.975 28.3826ZM163.34 31.1719V12.8983H167.433V31.1719H163.34Z" fill="#141415" style="fill:#141415;fill:color(display-p3 0.0766 0.0796 0.0808);fill-opacity:1;"/>
</svg>
