<svg width="68" height="70" viewBox="0 0 68 70" fill="none" xmlns="http://www.w3.org/2000/svg">
<g clip-path="url(#clip0_8338_86)">
<mask id="mask0_8338_86" style="mask-type:alpha" maskUnits="userSpaceOnUse" x="0" y="0" width="68" height="70">
<path d="M1.66439 48.1628L0.000126122 23.673L18.3806 2.85L47.3691 0.959473L66.0645 18.6046L67.535 45.7025L63.7539 54.105L44.6383 69.4395L16.7001 66.4986L1.66439 48.1628Z" fill="#4D9FFF"/>
</mask>
<g mask="url(#mask0_8338_86)">
<path d="M1.66439 48.1628L0.000126122 23.673L18.3806 2.85L47.3691 0.959473L66.0645 18.6046L67.535 45.7025L63.7539 54.105L44.6383 69.4395L16.7001 66.4986L1.66439 48.1628Z" fill="#02230F"/>
<path d="M58.6595 22.3723C58.602 22.3391 58.5368 22.3217 58.4705 22.3217C58.4041 22.3217 58.339 22.3391 58.2815 22.3723L37.3162 40.7925C36.2407 41.7567 34.8545 42.3022 33.4104 42.3297C32.7607 42.3451 32.1158 42.2151 31.5229 41.9491C30.9299 41.6831 30.4039 41.288 29.9834 40.7925L14.5366 22.4479C14.4801 22.4121 14.4145 22.393 14.3476 22.393C14.2807 22.393 14.2151 22.4121 14.1586 22.4479C14.0968 22.4828 14.0426 22.5298 13.9993 22.5861C13.956 22.6424 13.9245 22.7068 13.9066 22.7755L10.3032 45.4543C10.2209 45.9139 10.2418 46.3861 10.3644 46.8367C10.4871 47.2872 10.7083 47.7049 11.0122 48.0594C11.3161 48.414 11.695 48.6965 12.1215 48.8866C12.548 49.0767 13.0114 49.1695 13.4783 49.1585H51.2763C52.3242 49.1265 53.3288 48.7324 54.1189 48.0433C54.9091 47.3542 55.4362 46.4126 55.6104 45.3787L58.8359 22.6999C58.8472 22.6334 58.836 22.5651 58.804 22.5058C58.7721 22.4464 58.7212 22.3994 58.6595 22.3723Z" fill="#BBFF6F"/>
<path d="M32.2765 38.8774C32.7197 39.3145 33.3171 39.5595 33.9396 39.5595C34.5621 39.5595 35.1595 39.3145 35.6027 38.8774L56.4672 20.558C56.6039 20.4426 56.7082 20.2937 56.7701 20.1258C56.8319 19.958 56.8491 19.7769 56.82 19.6004C56.694 18.9201 55.8876 18.9201 55.6357 18.9201H18.2408C17.9687 18.8866 17.6927 18.9331 17.4466 19.0539C17.2004 19.1747 16.9948 19.3647 16.8549 19.6004C16.7562 19.7406 16.7032 19.9078 16.7032 20.0792C16.7032 20.2506 16.7562 20.4179 16.8549 20.558L32.2765 38.8774Z" fill="#BBFF6F"/>
</g>
</g>
<defs>
<clipPath id="clip0_8338_86">
<rect width="67.535" height="68.48" fill="white" transform="translate(0 0.959473)"/>
</clipPath>
</defs>
</svg>
