<svg width="31" height="31" viewBox="0 0 31 31" fill="none" xmlns="http://www.w3.org/2000/svg">
<path fill-rule="evenodd" clip-rule="evenodd" d="M9.62354 2.91185L22.186 2.91185C25.5853 2.88313 28.3842 5.57651 28.486 8.97435L28.486 18.0744C28.3841 21.4771 25.5776 24.1724 22.1735 24.1369H20.2235C19.7378 24.1384 19.2786 24.3588 18.9735 24.7369L17.1235 27.0869C16.8148 27.4585 16.3567 27.6735 15.8735 27.6735C15.3904 27.6735 14.9323 27.4585 14.6235 27.0869L12.761 24.7369C12.456 24.3588 11.9968 24.1384 11.511 24.1369H9.62354C6.19527 24.207 3.35069 21.5018 3.24854 18.0744L3.24854 8.97435C3.35069 5.5469 6.19527 2.84175 9.62354 2.91185ZM11.186 16.0119C11.7038 16.0119 12.1235 15.5921 12.1235 15.0744L12.1235 12.0744C12.1235 11.5566 11.7038 11.1369 11.186 11.1369C10.6683 11.1369 10.2485 11.5566 10.2485 12.0744L10.2485 15.0744C10.2485 15.5921 10.6683 16.0119 11.186 16.0119ZM16.811 15.0744C16.811 15.5921 16.3913 16.0119 15.8735 16.0119C15.3558 16.0119 14.936 15.5921 14.936 15.0744L14.936 12.0744C14.936 11.5566 15.3558 11.1369 15.8735 11.1369C16.3913 11.1369 16.811 11.5566 16.811 12.0744L16.811 15.0744ZM20.561 16.0119C21.0788 16.0119 21.4985 15.5921 21.4985 15.0744L21.4985 12.0744C21.4985 11.5566 21.0788 11.1369 20.561 11.1369C20.0433 11.1369 19.6235 11.5566 19.6235 12.0744L19.6235 15.0744C19.6235 15.5921 20.0433 16.0119 20.561 16.0119Z" fill="#B3B8C2"/>
</svg>
