<svg width="31" height="31" viewBox="0 0 31 31" fill="none" xmlns="http://www.w3.org/2000/svg">
<path fill-rule="evenodd" clip-rule="evenodd" d="M14.1067 5.21848C14.6215 4.32679 15.5725 3.77706 16.6022 3.776L16.6166 3.80485C18.2099 3.80485 19.5016 5.09649 19.5016 6.68981L19.5016 12.6184L22.4442 12.6184C23.51 12.615 24.4908 13.1995 24.995 14.1385C25.4992 15.0775 25.4446 16.2179 24.8531 17.1045L18.2899 26.9999C17.5827 28.0523 16.2714 28.5196 15.0581 28.1516C13.8448 27.7836 13.0139 26.6666 13.0104 25.3988V21.2877L9.92353 21.2877C8.89079 21.2918 7.93463 20.7436 7.41648 19.8502C6.89833 18.9568 6.89724 17.8547 7.41362 16.9603L14.1067 5.21848ZM17.1215 6.1458C16.9831 6.01012 16.796 5.93584 16.6022 5.93972C16.3381 5.94062 16.0975 6.09169 15.9819 6.32919L9.28884 18.0421C9.1664 18.2659 9.17127 18.5377 9.30163 18.7569C9.43199 18.9762 9.66846 19.1103 9.92353 19.1096H13.7317C14.5283 19.1096 15.1741 19.7554 15.1741 20.552L15.1741 25.3844C15.178 25.6977 15.3837 25.9727 15.6832 26.0649C15.9827 26.157 16.3075 26.0452 16.4868 25.7882L23.0789 15.8784C23.2292 15.6561 23.2436 15.3688 23.1164 15.1325C22.9892 14.8963 22.7414 14.7502 22.4731 14.7533L18.7803 14.7533C17.9837 14.7533 17.3378 14.1075 17.3378 13.3108L17.3378 6.66096C17.3379 6.46715 17.2599 6.28148 17.1215 6.1458Z" fill="#B3B8C2"/>
<path d="M17.1215 6.1458C16.9831 6.01012 16.796 5.93584 16.6022 5.93972C16.3381 5.94062 16.0975 6.09169 15.9819 6.32919L9.28884 18.0421C9.1664 18.2659 9.17127 18.5377 9.30163 18.7569C9.43199 18.9762 9.66846 19.1103 9.92353 19.1096H13.7317C14.5283 19.1096 15.1741 19.7554 15.1741 20.552L15.1741 25.3844C15.178 25.6977 15.3837 25.9727 15.6832 26.0649C15.9827 26.157 16.3075 26.0452 16.4868 25.7882L23.0789 15.8784C23.2292 15.6561 23.2436 15.3688 23.1164 15.1325C22.9892 14.8963 22.7414 14.7502 22.4731 14.7533L18.7803 14.7533C17.9837 14.7533 17.3378 14.1075 17.3378 13.3108L17.3378 6.66096C17.3379 6.46715 17.2599 6.28148 17.1215 6.1458Z" fill="#B3B8C2"/>
</svg>
