<svg width="31" height="31" viewBox="0 0 31 31" fill="none" xmlns="http://www.w3.org/2000/svg">
<path d="M4.49878 6.9856C4.49878 5.4323 5.75798 4.1731 7.31128 4.1731H11.1738C12.7271 4.1731 13.9863 5.4323 13.9863 6.9856L13.9863 10.8481C13.9863 12.4014 12.7271 13.6606 11.1738 13.6606L7.31128 13.6606C5.75798 13.6606 4.49878 12.4014 4.49878 10.8481V6.9856Z" fill="#B3B8C2"/>
<path d="M17.5113 6.9856C17.5113 5.4323 18.7705 4.1731 20.3238 4.1731L24.1863 4.1731C25.7396 4.1731 26.9988 5.4323 26.9988 6.9856V10.8481C26.9988 12.4014 25.7396 13.6606 24.1863 13.6606H20.3238C18.7705 13.6606 17.5113 12.4014 17.5113 10.8481V6.9856Z" fill="#B3B8C2"/>
<path d="M4.49878 19.9856C4.49878 18.4323 5.75798 17.1731 7.31128 17.1731H11.1738C12.7271 17.1731 13.9863 18.4323 13.9863 19.9856V23.8481C13.9863 25.4014 12.7271 26.6606 11.1738 26.6606H7.31128C5.75798 26.6606 4.49878 25.4014 4.49878 23.8481L4.49878 19.9856Z" fill="#B3B8C2"/>
<path d="M17.5113 19.9856C17.5113 18.4323 18.7705 17.1731 20.3238 17.1731H24.1863C25.7396 17.1731 26.9988 18.4323 26.9988 19.9856V23.8481C26.9988 25.4014 25.7396 26.6606 24.1863 26.6606H20.3238C18.7705 26.6606 17.5113 25.4014 17.5113 23.8481V19.9856Z" fill="#B3B8C2"/>
</svg>
