<svg width="31" height="31" viewBox="0 0 31 31" fill="none" xmlns="http://www.w3.org/2000/svg">
<path d="M17.9488 15.1731C17.9488 16.5262 16.8519 17.6231 15.4988 17.6231C14.1457 17.6231 13.0488 16.5262 13.0488 15.1731C13.0488 13.82 14.1457 12.7231 15.4988 12.7231C16.8519 12.7231 17.9488 13.82 17.9488 15.1731Z" fill="#B3B8C2"/>
<path fill-rule="evenodd" clip-rule="evenodd" d="M24.7818 11.3241C25.0199 11.9043 25.5842 12.2838 26.2113 12.2856C26.6224 12.2856 27.0166 12.4489 27.3073 12.7396C27.598 13.0303 27.7613 13.4246 27.7613 13.8356V16.5106C27.7613 17.3667 27.0673 18.0606 26.2113 18.0606C25.5842 18.0625 25.0199 18.442 24.7818 19.0222C24.5437 19.6023 24.6787 20.2688 25.1238 20.7106C25.7208 21.3225 25.7208 22.2988 25.1238 22.9106L23.2488 24.7856C22.637 25.3827 21.6606 25.3827 21.0488 24.7856C20.607 24.3406 19.9405 24.2056 19.3603 24.4437C18.7801 24.6818 18.4006 25.246 18.3988 25.8731C18.3988 26.7292 17.7048 27.4231 16.8488 27.4231H14.1738C13.3177 27.4231 12.6238 26.7292 12.6238 25.8731C12.622 25.246 12.2424 24.6818 11.6622 24.4437C11.0821 24.2056 10.4156 24.3406 9.97378 24.7856C9.36197 25.3827 8.38559 25.3827 7.77378 24.7856L5.89878 22.9106C5.30174 22.2988 5.30174 21.3225 5.89878 20.7106C6.34546 20.2672 6.47965 19.5977 6.23835 19.0164C5.99705 18.4351 5.42818 18.0574 4.79878 18.0606C3.94274 18.0606 3.24878 17.3667 3.24878 16.5106L3.24878 13.8356C3.24878 12.9796 3.94274 12.2856 4.79878 12.2856C5.4259 12.2838 5.99013 11.9043 6.22822 11.3241C6.46631 10.7439 6.33134 10.0775 5.88628 9.63564C5.28924 9.02383 5.28924 8.04746 5.88628 7.43564L7.76128 5.56064C8.37309 4.9636 9.34946 4.9636 9.96128 5.56064C10.4047 6.00733 11.0742 6.14152 11.6555 5.90022C12.2369 5.65892 12.6145 5.09004 12.6113 4.46064C12.6113 3.6046 13.3052 2.91064 14.1613 2.91064L16.8488 2.91064C17.2599 2.91064 17.6541 3.07395 17.9448 3.36463C18.2355 3.65531 18.3988 4.04956 18.3988 4.46064C18.3955 5.09004 18.7732 5.65892 19.3545 5.90022C19.9358 6.14152 20.6054 6.00733 21.0488 5.56064C21.6606 4.9636 22.637 4.9636 23.2488 5.56064L25.1238 7.43564C25.7208 8.04746 25.7208 9.02383 25.1238 9.63564C24.6787 10.0775 24.5437 10.7439 24.7818 11.3241ZM11.1738 15.1731C11.1738 17.5618 13.1101 19.4981 15.4988 19.4981C17.8874 19.4981 19.8238 17.5618 19.8238 15.1731C19.8238 12.7845 17.8874 10.8481 15.4988 10.8481C13.1101 10.8481 11.1738 12.7845 11.1738 15.1731Z" fill="#B3B8C2"/>
</svg>
